<svg xmlns="http://www.w3.org/2000/svg" width="25" height="33" fill="none" viewBox="0 0 25 33"><path fill="#f2f4f8" d="M4.458 6.836c-.563-1.115-.318-2.396.2-3.474C5.204 2.228 6.154 1.097 7.574.5c.07 1.195-.399 2.376-.91 3.441-.461.958-1.026 1.978-1.96 2.77q-.214.901-.33 1.795c.31-.63.81-1.203 1.437-1.664.805-.594 2.003-1.053 3.128-.782-.33.969-1.08 1.898-1.97 2.549-.7.513-1.624 1.17-2.712 1.196q-.067 1.315.073 2.602a3.35 3.35 0 0 1 .958-1.658c.653-.604 1.621-1.342 2.858-1.218-.068.98-.57 1.984-1.269 2.74-.555.6-1.288 1.364-2.33 1.561q.252 1.264.694 2.48c.003-.62.179-1.229.528-1.717.491-.689 1.257-1.548 2.496-1.615.181.962-.065 2.013-.561 2.85-.396.668-.925 1.52-1.888 1.873q.607 1.31 1.432 2.537a3.62 3.62 0 0 1 .043-2.116c.314-.921 1.094-1.89 2.347-2.17.443 1.017.382 2.152.125 3.186-.212.852-.628 1.851-1.56 2.405q.915 1.15 2.019 2.201c-.395-.686-.592-1.437-.486-2.124.153-1.001.514-2.072 1.827-2.606.745 1.001.917 2.124.98 3.233.052.897-.114 2.003-.914 2.733q1.32 1.07 2.842 1.993c-.655-.654-1.113-1.421-1.21-2.18-.137-1.072-.07-2.252 1.152-3.039 1.044.85 1.667 2.102 1.973 3.189.27.96.552 2.098-.091 3.044a30.6 30.6 0 0 0 4.122 1.723c-1.025-.569-1.863-1.349-2.263-2.154-.523-1.056-.847-2.314.173-3.372 1.366.682 2.37 1.845 3.161 2.906.679.91 1.381 2.167 1.033 3.25q1.21.32 2.479.56l-.05.162q-1.275-.24-2.49-.561c-.566 1.305-2.423 1.736-3.925 1.926-2.14.272-4.688-.254-6.515-1.313.964-1.061 2.931-1.17 4.415-1.25l.02-.001c1.624-.09 3.382.03 5.016.36a31.3 31.3 0 0 1-5.283-2.091l-.024.03c-.893 1.127-2.685 1.171-4.092 1.1-1.909-.097-4.113-1.001-5.388-2.251 1.2-.82 2.971-.591 4.345-.413h.006c1.533.2 3.207.632 4.613 1.299a7 7 0 0 1-.392-.26 26 26 0 0 1-3.772-2.535l-.04.031c-1.113.872-2.733.644-3.997.36-1.692-.38-3.447-1.525-4.288-2.84 1.303-.57 2.861-.1 4.073.27 1.33.407 2.737 1.058 3.82 1.888a5 5 0 0 1-.319-.342 22 22 0 0 1-2.706-2.83l-.04.019c-1.258.632-2.684.174-3.814-.276C2.64 20.773 1.409 19.43.877 18.11c1.36-.34 2.703.326 3.746.854 1.142.576 2.299 1.398 3.093 2.342a4 4 0 0 1-.163-.285 19 19 0 0 1-1.935-3.254l-.027.007h-.003c-1.144.34-2.418-.188-3.249-.765C1.185 16.206.371 14.97.18 13.765c1.193-.12 2.317.598 3.085 1.212.885.706 1.679 1.54 2.167 2.467a3 3 0 0 1-.092-.306 17 17 0 0 1-1.002-3.274l-.018.001-.006.001c-1.21.157-2.328-.56-2.996-1.255-.937-.975-1.42-2.326-1.3-3.55 1.205.066 2.123.959 2.718 1.681.689.837 1.26 1.783 1.51 2.773a3 3 0 0 1-.014-.237 16.5 16.5 0 0 1-.19-3.477H4.04c-1.23-.034-2.138-.924-2.608-1.713a4.44 4.44 0 0 1-.331-3.76c1.172.256 1.826 1.304 2.211 2.11.445.93.755 1.944.758 2.953q.095-1.27.39-2.555"/></svg>