<svg xmlns="http://www.w3.org/2000/svg" width="64" height="64" fill="none" viewBox="0 0 64 64"><g style="stroke-width:1.25" transform="matrix(.8 0 0 .8 59.257 13.495)"><circle cx="-34.072" cy="23.131" r="40" style="fill:#1a1a1a;stroke-width:.625001;stroke-linecap:round"/><path d="M-48.804 41.905q-4.493 0-7.715-1.489-3.223-1.49-4.956-4.272-1.734-2.784-1.734-6.69h6.324q.024 2.197 1 3.784.977 1.563 2.784 2.393 1.83.83 4.345.83 2.271 0 3.956-.635 1.709-.659 2.636-1.83.952-1.197.952-2.784 0-1.294-.683-2.246-.684-.952-2.173-1.66-1.465-.708-3.906-1.27l-3.907-.879q-5.444-1.245-8.032-3.686-2.588-2.442-2.588-6.275 0-3.271 1.66-5.688 1.685-2.442 4.688-3.784 3.027-1.368 7.031-1.368 4.077 0 7.032 1.417 2.978 1.391 4.614 4.003 1.66 2.588 1.758 6.202h-6.128q-.196-2.881-2.149-4.517t-5.151-1.636q-2.002 0-3.565.66-1.562.634-2.441 1.782-.879 1.123-.879 2.612 0 1.22.66 2.124.683.879 2.123 1.562 1.465.684 3.833 1.221l3.687.855q2.832.634 4.883 1.562 2.075.903 3.418 2.149t1.977 2.856q.66 1.611.66 3.613 0 3.394-1.71 5.884t-4.858 3.858q-3.15 1.342-7.446 1.342" aria-label="S" style="font-weight:600;font-size:50px;font-family:Inter;-inkscape-font-specification:&quot;Inter Semi-Bold&quot;;fill:#fff;stroke-width:.625;stroke-linecap:round"/><path d="M-4.935 36.474v5.43h-25.403v-5.43z" aria-label="_" style="font-weight:600;font-size:54.25px;font-family:Inter;-inkscape-font-specification:&quot;Inter Semi-Bold&quot;;fill:#fff;stroke-width:.625;stroke-linecap:round"/></g></svg>